<?xml version="1.0" encoding="UTF-8"?>
<svg xmlns="http://www.w3.org/2000/svg" xmlns:xlink="http://www.w3.org/1999/xlink" width="200.2pt" height="92.6pt" viewBox="0 0 200.2 92.6" version="1.1">
<defs>
<clipPath id="clip1">
  <path d="M 163 46 L 200.199219 46 L 200.199219 72 L 163 72 Z M 163 46 "/>
</clipPath>
<clipPath id="clip2">
  <path d="M 54 78 L 151 78 L 151 92.601563 L 54 92.601563 Z M 54 78 "/>
</clipPath>
</defs>
<g id="surface1">
<path style=" stroke:none;fill-rule:evenodd;fill:rgb(10.594177%,9.812927%,9.423828%);fill-opacity:1;" d="M 3.707031 46.371094 L 33.148438 46.371094 C 35.160156 46.371094 36.804688 48.015625 36.804688 50.027344 L 36.804688 53.871094 L 5.117188 53.871094 L 5.117188 57.246094 L 36.804688 57.246094 L 36.804688 68.007813 C 36.804688 69.722656 35.402344 71.121094 33.6875 71.121094 L 3.167969 71.121094 C 1.453125 71.121094 0.0546875 69.722656 0.0546875 68.007813 L 0.0546875 63.433594 L 31.855469 63.433594 L 31.855469 60.058594 L 0.0546875 60.058594 L 0.0546875 50.027344 C 0.0546875 48.015625 1.699219 46.371094 3.707031 46.371094 Z M 3.707031 46.371094 "/>
<path style=" stroke:none;fill-rule:evenodd;fill:rgb(10.594177%,9.812927%,9.423828%);fill-opacity:1;" d="M 43.714844 46.371094 L 74.652344 46.371094 C 76.5625 46.371094 78.121094 47.933594 78.121094 49.839844 L 78.121094 67.652344 C 78.121094 69.5625 76.5625 71.121094 74.652344 71.121094 L 43.714844 71.121094 C 41.808594 71.121094 40.246094 69.5625 40.246094 67.652344 L 40.246094 49.839844 C 40.246094 47.933594 41.808594 46.371094 43.714844 46.371094 Z M 47.839844 53.871094 L 70.902344 53.871094 C 72.808594 53.871094 74.371094 55.433594 74.371094 57.339844 L 74.371094 60.644531 C 74.371094 62.554688 72.808594 64.113281 70.902344 64.113281 L 47.839844 64.113281 C 45.933594 64.113281 44.371094 62.554688 44.371094 60.644531 L 44.371094 57.339844 C 44.371094 55.433594 45.933594 53.871094 47.839844 53.871094 Z M 47.839844 53.871094 "/>
<path style=" stroke:none;fill-rule:evenodd;fill:rgb(10.594177%,9.812927%,9.423828%);fill-opacity:1;" d="M 81.871094 46.371094 L 85.339844 46.371094 L 85.339844 63.433594 L 118.292969 63.433594 L 118.292969 69.433594 C 118.292969 70.363281 117.535156 71.121094 116.605469 71.121094 L 83.558594 71.121094 C 82.628906 71.121094 81.871094 70.363281 81.871094 69.4375 Z M 81.871094 46.371094 "/>
<path style=" stroke:none;fill-rule:evenodd;fill:rgb(10.594177%,9.812927%,9.423828%);fill-opacity:1;" d="M 118.949219 71.121094 L 124.878906 71.121094 L 126.214844 68.097656 L 155.464844 68.097656 L 157.527344 71.121094 L 162.917969 71.121094 L 146.886719 46.371094 L 134.042969 46.371094 Z M 134.417969 54.925781 L 146.464844 54.925781 L 151.246094 62.050781 L 130.199219 62.050781 Z M 134.417969 54.925781 "/>
<g clip-path="url(#clip1)" clip-rule="nonzero">
<path style=" stroke:none;fill-rule:evenodd;fill:rgb(10.594177%,9.812927%,9.423828%);fill-opacity:1;" d="M 166.621094 46.371094 L 198.003906 46.371094 C 199.253906 46.371094 200.277344 47.394531 200.277344 48.644531 L 200.277344 64.746094 C 200.277344 65.996094 199.253906 67.019531 198.003906 67.019531 L 197.070313 67.019531 L 199.757813 71.121094 L 195.585938 71.121094 L 192.902344 67.019531 L 169.292969 67.019531 L 169.292969 68.453125 C 169.292969 69.921875 168.089844 71.121094 166.621094 71.121094 L 163.949219 71.121094 L 163.949219 49.042969 C 163.949219 47.574219 165.152344 46.371094 166.621094 46.371094 Z M 169.292969 53.871094 L 195.425781 53.871094 C 196.46875 53.871094 197.324219 54.726563 197.324219 55.769531 L 197.324219 59.214844 C 197.324219 60.257813 196.46875 61.113281 195.425781 61.113281 L 169.292969 61.113281 Z M 169.292969 53.871094 "/>
</g>
<path style=" stroke:none;fill-rule:evenodd;fill:rgb(0%,0.784302%,0%);fill-opacity:1;" d="M 65.757813 18.875 L 100.039063 -0.046875 L 105.085938 -0.046875 L 134.636719 18.644531 L 134.636719 19.425781 C 134.636719 24.757813 134.636719 30.09375 134.636719 35.425781 C 134.636719 38.699219 131.972656 41.363281 128.695313 41.363281 L 71.695313 41.363281 C 68.421875 41.363281 65.757813 38.699219 65.757813 35.425781 C 65.757813 30.1875 65.757813 24.949219 65.757813 19.710938 Z M 65.757813 18.875 "/>
<path style=" stroke:none;fill-rule:evenodd;fill:rgb(100%,100%,100%);fill-opacity:1;" d="M 67.175781 19.710938 L 100.402344 1.371094 L 104.675781 1.371094 L 133.21875 19.425781 C 133.21875 24.734375 133.21875 29.878906 133.21875 35.425781 C 133.21875 37.917969 131.191406 39.945313 128.695313 39.945313 L 71.695313 39.945313 C 69.203125 39.945313 67.175781 37.917969 67.175781 35.425781 C 67.175781 29.9375 67.175781 25.511719 67.175781 19.710938 Z M 67.175781 19.710938 "/>
<path style=" stroke:none;fill-rule:evenodd;fill:rgb(89.0625%,0%,8.616638%);fill-opacity:1;" d="M 71.695313 30.363281 L 110.039063 30.363281 L 110.039063 27.175781 L 70.007813 27.175781 L 70.007813 21.386719 L 101.132813 4.207031 L 103.851563 4.207031 L 130.382813 20.988281 L 130.382813 21.082031 L 93.210938 21.082031 C 92.414063 21.082031 91.757813 21.734375 91.757813 22.535156 C 91.757813 23.332031 92.414063 23.988281 93.210938 23.988281 L 128.367188 23.988281 C 129.460938 23.988281 130.382813 25.199219 130.382813 26.121094 L 130.382813 35.425781 C 130.382813 36.351563 129.625 37.113281 128.695313 37.113281 L 71.695313 37.113281 C 70.769531 37.113281 70.007813 36.351563 70.007813 35.425781 L 70.007813 32.050781 C 70.007813 31.121094 70.769531 30.363281 71.695313 30.363281 Z M 71.695313 30.363281 "/>
<g clip-path="url(#clip2)" clip-rule="nonzero">
<path style=" stroke:none;fill-rule:evenodd;fill:rgb(10.594177%,9.812927%,9.423828%);fill-opacity:1;" d="M 54.449219 92.292969 L 54.449219 78.492188 L 62.199219 78.492188 L 62.199219 80.824219 L 56.726563 80.824219 L 56.726563 84.101563 L 61.46875 84.101563 L 61.46875 86.433594 L 56.726563 86.433594 L 56.726563 92.292969 Z M 64.011719 78.492188 L 66.289063 78.492188 L 66.289063 92.292969 L 64.011719 92.292969 Z M 68.523438 92.292969 L 68.523438 78.492188 L 70.738281 78.492188 L 75.386719 87.710938 L 75.386719 78.492188 L 77.507813 78.492188 L 77.507813 92.292969 L 75.21875 92.292969 L 70.644531 83.292969 L 70.644531 92.292969 Z M 90.09375 92.292969 L 87.621094 92.292969 L 86.652344 89.171875 L 82.101563 89.171875 L 81.167969 92.292969 L 78.738281 92.292969 L 83.136719 78.492188 L 85.574219 78.492188 Z M 85.90625 86.839844 L 84.339844 81.714844 L 82.804688 86.839844 Z M 91.34375 92.292969 L 91.34375 78.492188 L 93.558594 78.492188 L 98.207031 87.710938 L 98.207031 78.492188 L 100.328125 78.492188 L 100.328125 92.292969 L 98.039063 92.292969 L 93.464844 83.292969 L 93.464844 92.292969 Z M 109.945313 87.207031 L 112.164063 88.054688 C 111.820313 89.605469 111.242188 90.734375 110.441406 91.453125 C 109.636719 92.167969 108.652344 92.527344 107.476563 92.527344 C 106.003906 92.527344 104.808594 91.957031 103.890625 90.824219 C 102.839844 89.511719 102.3125 87.742188 102.3125 85.515625 C 102.3125 83.164063 102.839844 81.320313 103.902344 79.992188 C 104.828125 78.839844 106.066406 78.257813 107.621094 78.257813 C 108.890625 78.257813 109.953125 78.691406 110.808594 79.5625 C 111.414063 80.179688 111.859375 81.09375 112.144531 82.308594 L 109.886719 82.964844 C 109.742188 82.21875 109.453125 81.644531 109.023438 81.246094 C 108.59375 80.847656 108.085938 80.648438 107.5 80.648438 C 106.664063 80.648438 105.984375 81.011719 105.457031 81.738281 C 104.925781 82.464844 104.664063 83.664063 104.664063 85.335938 C 104.664063 87.070313 104.921875 88.304688 105.433594 89.035156 C 105.949219 89.769531 106.613281 90.136719 107.4375 90.136719 C 108.035156 90.136719 108.558594 89.902344 108.996094 89.433594 C 109.433594 88.964844 109.753906 88.222656 109.945313 87.207031 Z M 114.046875 78.492188 L 116.324219 78.492188 L 116.324219 92.292969 L 114.046875 92.292969 Z M 118.523438 92.292969 L 118.523438 78.492188 L 126.90625 78.492188 L 126.90625 80.824219 L 120.796875 80.824219 L 120.796875 83.871094 L 126.484375 83.871094 L 126.484375 86.203125 L 120.796875 86.203125 L 120.796875 89.960938 L 127.121094 89.960938 L 127.121094 92.292969 Z M 129.0625 92.292969 L 129.0625 78.492188 L 133.875 78.492188 C 135.105469 78.492188 135.980469 78.617188 136.511719 78.863281 C 137.039063 79.109375 137.46875 79.542969 137.808594 80.152344 C 138.148438 80.765625 138.316406 81.5 138.316406 82.351563 C 138.316406 83.429688 138.058594 84.300781 137.539063 84.960938 C 137.023438 85.617188 136.289063 86.03125 135.332031 86.203125 C 135.820313 86.550781 136.230469 86.9375 136.546875 87.355469 C 136.867188 87.773438 137.304688 88.523438 137.863281 89.601563 L 139.242188 92.292969 L 136.507813 92.292969 L 134.851563 89.292969 C 134.257813 88.207031 133.851563 87.527344 133.636719 87.253906 C 133.425781 86.980469 133.195313 86.789063 132.957031 86.6875 C 132.722656 86.582031 132.339844 86.53125 131.8125 86.53125 L 131.339844 86.53125 L 131.339844 92.292969 Z M 131.339844 84.332031 L 133.035156 84.332031 C 134.074219 84.332031 134.730469 84.289063 135.015625 84.195313 C 135.296875 84.105469 135.527344 83.921875 135.703125 83.644531 C 135.878906 83.367188 135.964844 83 135.964844 82.539063 C 135.964844 82.097656 135.878906 81.746094 135.703125 81.480469 C 135.527344 81.210938 135.289063 81.03125 134.984375 80.925781 C 134.773438 80.859375 134.152344 80.824219 133.128906 80.824219 L 131.339844 80.824219 Z M 150.671875 92.292969 L 148.199219 92.292969 L 147.230469 89.171875 L 142.679688 89.171875 L 141.746094 92.292969 L 139.316406 92.292969 L 143.714844 78.492188 L 146.152344 78.492188 Z M 146.484375 86.839844 L 144.917969 81.714844 L 143.382813 86.839844 Z M 146.484375 86.839844 "/>
</g>
</g>
</svg>
